<?xml version="1.0" encoding="UTF-8" standalone="no"?>
<!DOCTYPE svg PUBLIC "-//W3C//DTD SVG 1.1//EN"
 "http://www.w3.org/Graphics/SVG/1.1/DTD/svg11.dtd">
<!-- Generated by graphviz version 3.0.0 (20220226.1711)
 -->
<!-- Title: classes Pages: 1 -->
<svg width="979pt" height="186pt"
 viewBox="0.00 0.00 979.00 186.00" xmlns="http://www.w3.org/2000/svg" xmlns:xlink="http://www.w3.org/1999/xlink">
<g id="graph0" class="graph" transform="scale(1 1) rotate(0) translate(4 182)">
<title>classes</title>
<polygon fill="white" stroke="transparent" points="-4,4 -4,-182 975,-182 975,4 -4,4"/>
<!-- evolutionary_optimization.fitness_functions.abstract_fitness_function.AbstractFitnessFunction -->
<g id="node1" class="node">
<title>evolutionary_optimization.fitness_functions.abstract_fitness_function.AbstractFitnessFunction</title>
<polygon fill="none" stroke="black" points="287,-107.5 287,-177.5 620,-177.5 620,-107.5 287,-107.5"/>
<text text-anchor="middle" x="453.5" y="-162.3" font-family="Times,serif" font-size="14.00">AbstractFitnessFunction</text>
<polyline fill="none" stroke="black" points="287,-154.5 620,-154.5 "/>
<polyline fill="none" stroke="black" points="287,-130.5 620,-130.5 "/>
<text text-anchor="start" x="295" y="-115.3" font-family="Times,serif" font-size="14.00">evaluate(phenotype: AbstractPhenotype): Union[float, int]</text>
</g>
<!-- evolutionary_optimization.fitness_functions.implemented_fitness_functions.ApproachValueFitnessFunction -->
<g id="node2" class="node">
<title>evolutionary_optimization.fitness_functions.implemented_fitness_functions.ApproachValueFitnessFunction</title>
<polygon fill="none" stroke="black" points="0,-1 0,-70 269,-70 269,-1 0,-1"/>
<text text-anchor="middle" x="134.5" y="-54.8" font-family="Times,serif" font-size="14.00">ApproachValueFitnessFunction</text>
<polyline fill="none" stroke="black" points="0,-47 269,-47 "/>
<text text-anchor="start" x="8" y="-31.8" font-family="Times,serif" font-size="14.00">expected_value : Union[float, int]</text>
<polyline fill="none" stroke="black" points="0,-24 269,-24 "/>
<text text-anchor="start" x="8" y="-8.8" font-family="Times,serif" font-size="14.00">evaluate(phenotype: AbstractPhenotype): float</text>
</g>
<!-- evolutionary_optimization.fitness_functions.implemented_fitness_functions.ApproachValueFitnessFunction&#45;&gt;evolutionary_optimization.fitness_functions.abstract_fitness_function.AbstractFitnessFunction -->
<g id="edge1" class="edge">
<title>evolutionary_optimization.fitness_functions.implemented_fitness_functions.ApproachValueFitnessFunction&#45;&gt;evolutionary_optimization.fitness_functions.abstract_fitness_function.AbstractFitnessFunction</title>
<path fill="none" stroke="black" d="M236.31,-70.01C269.56,-80.96 306.68,-93.17 340.69,-104.37"/>
<polygon fill="none" stroke="black" points="339.6,-107.69 350.19,-107.5 341.79,-101.04 339.6,-107.69"/>
</g>
<!-- evolutionary_optimization.fitness_functions.implemented_fitness_functions.MaximizeFitnessFunction -->
<g id="node3" class="node">
<title>evolutionary_optimization.fitness_functions.implemented_fitness_functions.MaximizeFitnessFunction</title>
<polygon fill="none" stroke="black" points="287,-0.5 287,-70.5 620,-70.5 620,-0.5 287,-0.5"/>
<text text-anchor="middle" x="453.5" y="-55.3" font-family="Times,serif" font-size="14.00">MaximizeFitnessFunction</text>
<polyline fill="none" stroke="black" points="287,-47.5 620,-47.5 "/>
<polyline fill="none" stroke="black" points="287,-23.5 620,-23.5 "/>
<text text-anchor="start" x="295" y="-8.3" font-family="Times,serif" font-size="14.00">evaluate(phenotype: AbstractPhenotype): Union[float, int]</text>
</g>
<!-- evolutionary_optimization.fitness_functions.implemented_fitness_functions.MaximizeFitnessFunction&#45;&gt;evolutionary_optimization.fitness_functions.abstract_fitness_function.AbstractFitnessFunction -->
<g id="edge2" class="edge">
<title>evolutionary_optimization.fitness_functions.implemented_fitness_functions.MaximizeFitnessFunction&#45;&gt;evolutionary_optimization.fitness_functions.abstract_fitness_function.AbstractFitnessFunction</title>
<path fill="none" stroke="black" d="M453.5,-70.59C453.5,-79.03 453.5,-88.19 453.5,-97.04"/>
<polygon fill="none" stroke="black" points="450,-97.22 453.5,-107.22 457,-97.22 450,-97.22"/>
</g>
<!-- evolutionary_optimization.fitness_functions.implemented_fitness_functions.MinimizeFitnessFunction -->
<g id="node4" class="node">
<title>evolutionary_optimization.fitness_functions.implemented_fitness_functions.MinimizeFitnessFunction</title>
<polygon fill="none" stroke="black" points="638,-0.5 638,-70.5 971,-70.5 971,-0.5 638,-0.5"/>
<text text-anchor="middle" x="804.5" y="-55.3" font-family="Times,serif" font-size="14.00">MinimizeFitnessFunction</text>
<polyline fill="none" stroke="black" points="638,-47.5 971,-47.5 "/>
<polyline fill="none" stroke="black" points="638,-23.5 971,-23.5 "/>
<text text-anchor="start" x="646" y="-8.3" font-family="Times,serif" font-size="14.00">evaluate(phenotype: AbstractPhenotype): Union[float, int]</text>
</g>
<!-- evolutionary_optimization.fitness_functions.implemented_fitness_functions.MinimizeFitnessFunction&#45;&gt;evolutionary_optimization.fitness_functions.abstract_fitness_function.AbstractFitnessFunction -->
<g id="edge3" class="edge">
<title>evolutionary_optimization.fitness_functions.implemented_fitness_functions.MinimizeFitnessFunction&#45;&gt;evolutionary_optimization.fitness_functions.abstract_fitness_function.AbstractFitnessFunction</title>
<path fill="none" stroke="black" d="M690.54,-70.59C654.25,-81.45 613.94,-93.51 577,-104.55"/>
<polygon fill="none" stroke="black" points="575.77,-101.27 567.19,-107.49 577.77,-107.98 575.77,-101.27"/>
</g>
</g>
</svg>
