<?xml version="1.0" encoding="UTF-8" standalone="no"?>
<!DOCTYPE svg PUBLIC "-//W3C//DTD SVG 1.1//EN"
 "http://www.w3.org/Graphics/SVG/1.1/DTD/svg11.dtd">
<!-- Generated by graphviz version 3.0.0 (20220226.1711)
 -->
<!-- Title: classes Pages: 1 -->
<svg width="1071pt" height="186pt"
 viewBox="0.00 0.00 1070.50 186.00" xmlns="http://www.w3.org/2000/svg" xmlns:xlink="http://www.w3.org/1999/xlink">
<g id="graph0" class="graph" transform="scale(1 1) rotate(0) translate(4 182)">
<title>classes</title>
<polygon fill="white" stroke="transparent" points="-4,4 -4,-182 1066.5,-182 1066.5,4 -4,4"/>
<!-- evolutionary_optimization.fitness_functions.abstract_fitness_function.AbstractFitnessFunction -->
<g id="node1" class="node">
<title>evolutionary_optimization.fitness_functions.abstract_fitness_function.AbstractFitnessFunction</title>
<polygon fill="none" stroke="black" points="378.5,-107.5 378.5,-177.5 711.5,-177.5 711.5,-107.5 378.5,-107.5"/>
<text text-anchor="middle" x="545" y="-162.3" font-family="Times,serif" font-size="14.00">AbstractFitnessFunction</text>
<polyline fill="none" stroke="black" points="378.5,-154.5 711.5,-154.5 "/>
<polyline fill="none" stroke="black" points="378.5,-130.5 711.5,-130.5 "/>
<text text-anchor="start" x="386.5" y="-115.3" font-family="Times,serif" font-size="14.00">evaluate(phenotype: AbstractPhenotype): Union[float, int]</text>
</g>
<!-- evolutionary_optimization.fitness_functions.implemented_fitness_functions.ApproachValueFitnessFunction -->
<g id="node2" class="node">
<title>evolutionary_optimization.fitness_functions.implemented_fitness_functions.ApproachValueFitnessFunction</title>
<polygon fill="none" stroke="black" points="0,-0.5 0,-70.5 360,-70.5 360,-0.5 0,-0.5"/>
<text text-anchor="middle" x="180" y="-55.3" font-family="Times,serif" font-size="14.00">ApproachValueFitnessFunction</text>
<polyline fill="none" stroke="black" points="0,-47.5 360,-47.5 "/>
<polyline fill="none" stroke="black" points="0,-23.5 360,-23.5 "/>
<text text-anchor="start" x="8" y="-8.3" font-family="Times,serif" font-size="14.00">evaluate(phenotype: AbstractPhenotype, expected_value): float</text>
</g>
<!-- evolutionary_optimization.fitness_functions.implemented_fitness_functions.ApproachValueFitnessFunction&#45;&gt;evolutionary_optimization.fitness_functions.abstract_fitness_function.AbstractFitnessFunction -->
<g id="edge1" class="edge">
<title>evolutionary_optimization.fitness_functions.implemented_fitness_functions.ApproachValueFitnessFunction&#45;&gt;evolutionary_optimization.fitness_functions.abstract_fitness_function.AbstractFitnessFunction</title>
<path fill="none" stroke="black" d="M298.25,-70.52C336.16,-81.42 378.31,-93.55 416.9,-104.65"/>
<polygon fill="none" stroke="black" points="416.04,-108.05 426.62,-107.45 417.98,-101.32 416.04,-108.05"/>
</g>
<!-- evolutionary_optimization.fitness_functions.implemented_fitness_functions.MaximizeFitnessFunction -->
<g id="node3" class="node">
<title>evolutionary_optimization.fitness_functions.implemented_fitness_functions.MaximizeFitnessFunction</title>
<polygon fill="none" stroke="black" points="378.5,-0.5 378.5,-70.5 711.5,-70.5 711.5,-0.5 378.5,-0.5"/>
<text text-anchor="middle" x="545" y="-55.3" font-family="Times,serif" font-size="14.00">MaximizeFitnessFunction</text>
<polyline fill="none" stroke="black" points="378.5,-47.5 711.5,-47.5 "/>
<polyline fill="none" stroke="black" points="378.5,-23.5 711.5,-23.5 "/>
<text text-anchor="start" x="386.5" y="-8.3" font-family="Times,serif" font-size="14.00">evaluate(phenotype: AbstractPhenotype): Union[float, int]</text>
</g>
<!-- evolutionary_optimization.fitness_functions.implemented_fitness_functions.MaximizeFitnessFunction&#45;&gt;evolutionary_optimization.fitness_functions.abstract_fitness_function.AbstractFitnessFunction -->
<g id="edge2" class="edge">
<title>evolutionary_optimization.fitness_functions.implemented_fitness_functions.MaximizeFitnessFunction&#45;&gt;evolutionary_optimization.fitness_functions.abstract_fitness_function.AbstractFitnessFunction</title>
<path fill="none" stroke="black" d="M545,-70.59C545,-79.03 545,-88.19 545,-97.04"/>
<polygon fill="none" stroke="black" points="541.5,-97.22 545,-107.22 548.5,-97.22 541.5,-97.22"/>
</g>
<!-- evolutionary_optimization.fitness_functions.implemented_fitness_functions.MinimizeFitnessFunction -->
<g id="node4" class="node">
<title>evolutionary_optimization.fitness_functions.implemented_fitness_functions.MinimizeFitnessFunction</title>
<polygon fill="none" stroke="black" points="729.5,-0.5 729.5,-70.5 1062.5,-70.5 1062.5,-0.5 729.5,-0.5"/>
<text text-anchor="middle" x="896" y="-55.3" font-family="Times,serif" font-size="14.00">MinimizeFitnessFunction</text>
<polyline fill="none" stroke="black" points="729.5,-47.5 1062.5,-47.5 "/>
<polyline fill="none" stroke="black" points="729.5,-23.5 1062.5,-23.5 "/>
<text text-anchor="start" x="737.5" y="-8.3" font-family="Times,serif" font-size="14.00">evaluate(phenotype: AbstractPhenotype): Union[float, int]</text>
</g>
<!-- evolutionary_optimization.fitness_functions.implemented_fitness_functions.MinimizeFitnessFunction&#45;&gt;evolutionary_optimization.fitness_functions.abstract_fitness_function.AbstractFitnessFunction -->
<g id="edge3" class="edge">
<title>evolutionary_optimization.fitness_functions.implemented_fitness_functions.MinimizeFitnessFunction&#45;&gt;evolutionary_optimization.fitness_functions.abstract_fitness_function.AbstractFitnessFunction</title>
<path fill="none" stroke="black" d="M782.04,-70.59C745.75,-81.45 705.44,-93.51 668.5,-104.55"/>
<polygon fill="none" stroke="black" points="667.27,-101.27 658.69,-107.49 669.27,-107.98 667.27,-101.27"/>
</g>
</g>
</svg>
